<svg width="152" height="93" viewBox="0 0 152 93" fill="none" xmlns="http://www.w3.org/2000/svg">
<path d="M68.8777 6.30915C69.7068 3.10085 72.9776 1.18038 76.1833 2.01967L146.196 20.3499C149.401 21.1892 151.328 24.4704 150.499 27.6787L137.325 78.6538C136.496 81.8621 133.225 83.7826 130.02 82.9433L60.0073 64.6131C56.8016 63.7738 54.8751 60.4926 55.7042 57.2843L68.8777 6.30915Z" fill="white" fill-opacity="0.6"/>
<path d="M70.8159 6.83752C71.3687 4.69865 73.5492 3.41834 75.6863 3.97786L145.682 22.3036C147.819 22.8631 149.103 25.0506 148.55 27.1895L135.387 78.1253C134.834 80.2642 132.654 81.5445 130.517 80.985L60.5214 62.6592C58.3843 62.0997 57.0999 59.9122 57.6526 57.7733L70.8159 6.83752Z" fill="#1677FF" fill-opacity="0.1"/>
<path d="M107.525 44.4982L97.0167 48.1629C96.2625 48.4259 95.5183 47.7388 95.7184 46.9644L98.8244 34.9456C99.0245 34.1712 100.007 33.9362 100.538 34.5358L107.941 42.8899C108.413 43.423 108.196 44.2643 107.525 44.4982Z" fill="#1677FF" fill-opacity="0.2"/>
<path d="M0.593128 34.1152C0.265552 30.8177 2.67257 27.8734 5.96936 27.539L77.9426 20.2371C81.2394 19.9027 84.1775 22.3047 84.5051 25.6021L89.712 78.0164C90.0396 81.3138 87.6325 84.2581 84.3357 84.5926L12.3625 91.8944C9.06571 92.2289 6.1276 89.8269 5.80002 86.5294L0.593128 34.1152Z" fill="white"/>
<path d="M2.5956 33.934C2.37635 31.7358 3.98039 29.7738 6.17834 29.5517L78.1382 22.2804C80.3362 22.0583 82.2957 23.6603 82.5149 25.8585L87.7383 78.2288C87.9576 80.427 86.3535 82.3891 84.1556 82.6112L12.1957 89.8825C9.99778 90.1046 8.03826 88.5026 7.81901 86.3044L2.5956 33.934Z" fill="#1677FF" fill-opacity="0.1"/>
<path fill-rule="evenodd" clip-rule="evenodd" d="M35.9112 61.3244C36.3446 61.7526 37.0574 61.696 37.419 61.2048L47.1375 48.0051C47.4889 47.5278 48.1754 47.4584 48.6141 47.8559L67.8785 65.3109C68.5203 65.8924 68.1682 66.9604 67.3059 67.0475L44.0809 69.3944C44.0809 69.3944 44.0809 69.3944 44.0809 69.3944C44.0809 69.3944 44.0809 69.3944 44.0809 69.3944L26.6085 71.1599C25.7664 71.245 25.2072 70.3106 25.6796 69.6077L32.433 59.5575C32.783 59.0367 33.5198 58.9623 33.9657 59.4027L35.9112 61.3244Z" fill="#1677FF" fill-opacity="0.2"/>
<ellipse cx="3.93756" cy="3.96276" rx="3.93756" ry="3.96276" transform="matrix(0.994933 -0.100534 0.0992474 0.995062 21.9856 46.2359)" fill="#1677FF" fill-opacity="0.2"/>
</svg>
